<svg width="96" height="72" viewBox="0 0 96 72" fill="none" xmlns="http://www.w3.org/2000/svg">
<g clip-path="url(#clip0_18_1018)">
<g clip-path="url(#clip1_18_1018)">
<g clip-path="url(#clip2_18_1018)">
<path d="M0.0810547 71.7582V70.8646H95.5117V71.7582H0.0810547ZM0.0810547 0.0683594H95.5117V67.2114H91.3244V4.48111H4.26842V67.2114H0.0810547V0.0683594Z" fill="#F9CC0B"/>
<path d="M14.0362 68.3265C14.0762 68.3265 14.1095 68.3412 14.1361 68.3703C14.1618 68.3995 14.175 68.4354 14.175 68.4775V70.6693C14.175 70.7083 14.161 70.7423 14.1334 70.7717C14.1057 70.8008 14.0733 70.8155 14.0362 70.8155C13.993 70.8155 13.9592 70.8008 13.9345 70.7717C13.9099 70.7425 13.8975 70.7083 13.8978 70.6693V70.0896L13.9761 70.0506C13.9761 70.1416 13.9525 70.2341 13.905 70.3283C13.857 70.4224 13.7913 70.5101 13.7081 70.5913C13.6249 70.6724 13.5272 70.738 13.415 70.7881C13.3023 70.8387 13.1797 70.8641 13.0472 70.8641C12.8408 70.8641 12.6551 70.8073 12.4906 70.6936C12.3253 70.58 12.196 70.4241 12.1024 70.2262C12.0082 70.0283 11.9609 69.8057 11.9609 69.5588C11.9609 69.3055 12.0087 69.0821 12.1042 68.8887C12.1998 68.6958 12.3291 68.5442 12.4925 68.4337C12.6559 68.3234 12.8392 68.268 13.0426 68.268C13.1752 68.268 13.2994 68.2923 13.415 68.3412C13.5302 68.3898 13.6311 68.4566 13.7175 68.5408C13.8039 68.6254 13.8715 68.7218 13.9209 68.8301C13.9702 68.9393 13.9949 69.0521 13.9946 69.1692L13.8978 69.0959V68.4775C13.8978 68.4354 13.9101 68.3995 13.9345 68.3703C13.9592 68.3412 13.993 68.3265 14.0362 68.3265ZM13.0751 70.5913C13.2385 70.5913 13.3831 70.5466 13.5095 70.4569C13.6359 70.3679 13.7354 70.2446 13.8079 70.0868C13.8801 69.9296 13.916 69.7537 13.916 69.5588C13.916 69.3671 13.8801 69.1952 13.8079 69.0425C13.7352 68.8898 13.6356 68.7682 13.5095 68.6771C13.3831 68.5861 13.2382 68.5408 13.0751 68.5408C12.9149 68.5408 12.771 68.5847 12.6433 68.6723C12.515 68.76 12.415 68.8802 12.3428 69.0326C12.2701 69.1853 12.2336 69.3606 12.2338 69.5588C12.2338 69.7537 12.2693 69.9296 12.3401 70.0868C12.4109 70.2446 12.5105 70.3679 12.6388 70.4569C12.7662 70.5466 12.9116 70.5913 13.0751 70.5913ZM15.9221 68.268C16.07 68.268 16.2055 68.2849 16.3289 68.3186C16.4521 68.3531 16.5516 68.3994 16.6276 68.458C16.7027 68.5165 16.7403 68.5799 16.7403 68.648C16.7403 68.6805 16.729 68.7119 16.7059 68.7425C16.6826 68.7736 16.6538 68.7891 16.62 68.7891C16.5801 68.7891 16.5487 68.7795 16.5259 68.76C16.5025 68.7405 16.48 68.7179 16.4582 68.6918C16.4368 68.6658 16.4043 68.6415 16.3611 68.6186C16.3211 68.5991 16.2634 68.5813 16.1883 68.5652C16.1126 68.549 16.0284 68.5408 15.9361 68.5408C15.7635 68.5408 15.6079 68.5864 15.4692 68.6771C15.3304 68.7682 15.2212 68.8904 15.141 69.0445C15.0607 69.1991 15.0208 69.3722 15.0208 69.5636C15.0208 69.7585 15.0586 69.9338 15.1345 70.0896C15.2097 70.2454 15.3159 70.3679 15.4533 70.4569C15.5902 70.5466 15.748 70.5913 15.9267 70.5913C16.0498 70.5913 16.1464 70.58 16.2162 70.5573C16.2852 70.5347 16.3428 70.5087 16.389 70.4793C16.4507 70.4437 16.4947 70.4086 16.521 70.3741C16.5468 70.3404 16.5814 70.3235 16.6246 70.3235C16.6616 70.3235 16.6909 70.3359 16.7126 70.3605C16.7341 70.3846 16.7451 70.4159 16.7448 70.455C16.7448 70.507 16.7089 70.5644 16.6367 70.6275C16.564 70.6911 16.4644 70.7462 16.338 70.7932C16.2116 70.8407 16.0654 70.8641 15.899 70.8641C15.6709 70.8641 15.4702 70.8073 15.2963 70.6936C15.1219 70.58 14.9864 70.4247 14.8895 70.2279C14.7921 70.0316 14.7436 69.8102 14.7436 69.5636C14.7436 69.3267 14.7929 69.1106 14.8914 68.9158C14.9899 68.721 15.127 68.564 15.3028 68.4453C15.4785 68.3271 15.6849 68.268 15.9221 68.268ZM18.3256 70.8641C18.0884 70.8641 17.8788 70.8107 17.6969 70.7035C17.5149 70.5964 17.3733 70.447 17.2718 70.2553C17.1701 70.0636 17.1194 69.8396 17.1191 69.5832C17.1191 69.3072 17.1709 69.0716 17.2745 68.8768C17.3775 68.6819 17.5114 68.5315 17.6767 68.4257C17.8412 68.3206 18.0159 68.268 18.2008 68.268C18.3363 68.268 18.4683 68.2928 18.5963 68.3429C18.7238 68.3935 18.837 68.4682 18.9358 68.5671C19.0343 68.6664 19.1145 68.7877 19.1759 68.9305C19.2376 69.0733 19.2698 69.239 19.2731 69.4273C19.2731 69.4664 19.2591 69.4995 19.2315 69.5266C19.2038 69.5546 19.1714 69.5685 19.1343 69.5685H17.2809L17.2254 69.3055H19.0466L18.9865 69.364V69.2664C18.9712 69.1137 18.9234 68.984 18.8432 68.8768C18.763 68.7696 18.6669 68.6885 18.5547 68.6333C18.442 68.5782 18.324 68.5505 18.2008 68.5505C18.1085 68.5505 18.0138 68.57 17.9169 68.609C17.8195 68.648 17.7318 68.7088 17.6534 68.7911C17.5745 68.8742 17.5104 68.9797 17.4613 69.1078C17.4119 69.2365 17.3872 69.3883 17.3872 69.5636C17.3872 69.7554 17.4242 69.929 17.4983 70.0848C17.5724 70.2406 17.6786 70.3642 17.8171 70.455C17.9558 70.546 18.1238 70.5913 18.321 70.5913C18.4257 70.5913 18.5212 70.5751 18.6076 70.5426C18.694 70.5101 18.7702 70.4668 18.8368 70.4131C18.9028 70.3599 18.9572 70.304 19.0004 70.2454C19.0343 70.2163 19.0667 70.2016 19.0976 70.2016C19.1314 70.2016 19.1601 70.2146 19.1834 70.2406C19.2063 70.2666 19.2175 70.2958 19.2175 70.3283C19.2175 70.3673 19.2022 70.4012 19.1714 70.4306C19.0791 70.5474 18.9588 70.6489 18.811 70.7346C18.6631 70.8209 18.5013 70.8641 18.3256 70.8641ZM21.7643 67.2109C21.8043 67.2109 21.8375 67.2245 21.8641 67.2519C21.8899 67.2799 21.903 67.315 21.903 67.3571V70.6693C21.903 70.7083 21.8891 70.7423 21.8614 70.7717C21.8338 70.8008 21.8013 70.8155 21.7643 70.8155C21.7211 70.8155 21.6873 70.8008 21.6626 70.7717C21.6379 70.7425 21.6256 70.7083 21.6258 70.6693V70.0896L21.7042 70.0215C21.7042 70.1125 21.6811 70.2072 21.635 70.3059C21.5888 70.4052 21.5233 70.4971 21.4391 70.5816C21.354 70.6662 21.2555 70.7343 21.1431 70.7861C21.0304 70.8381 20.9078 70.8641 20.7752 70.8641C20.5718 70.8641 20.388 70.8073 20.2232 70.6936C20.0579 70.58 19.9278 70.4258 19.8323 70.231C19.7368 70.0362 19.689 69.8136 19.689 69.5636C19.689 69.3168 19.7368 69.0951 19.8323 68.8983C19.9278 68.702 20.0571 68.5479 20.2206 68.4356C20.384 68.3239 20.5672 68.268 20.7706 68.268C20.9 68.268 21.0218 68.2923 21.1359 68.3412C21.2499 68.3898 21.3511 68.4566 21.4391 68.5408C21.5265 68.6254 21.596 68.7218 21.647 68.8301C21.6975 68.9393 21.7227 69.0521 21.7227 69.1692L21.6258 69.0959V67.3571C21.6258 67.3181 21.6382 67.2842 21.6626 67.2548C21.6873 67.2256 21.7211 67.2109 21.7643 67.2109ZM20.8028 70.5913C20.9663 70.5913 21.1109 70.5466 21.2375 70.4569C21.3639 70.3679 21.4635 70.2463 21.5359 70.0916C21.6081 69.9378 21.6441 69.7616 21.6441 69.5636C21.6441 69.3688 21.6081 69.1941 21.5359 69.0397C21.4632 68.8858 21.3637 68.7639 21.2375 68.6743C21.1112 68.5852 20.9663 68.5408 20.8028 68.5408C20.6427 68.5408 20.4988 68.5852 20.3714 68.6743C20.2431 68.7639 20.143 68.8858 20.0708 69.0397C19.9981 69.1943 19.9616 69.3688 19.9619 69.5636C19.9619 69.7585 19.9984 69.9338 20.0708 70.0896C20.143 70.2454 20.2431 70.3679 20.3714 70.4569C20.4988 70.5466 20.6429 70.5913 20.8028 70.5913ZM23.6917 68.307C23.8828 68.307 24.0462 68.3596 24.1817 68.4648C24.3172 68.5705 24.4098 68.7275 24.4589 68.9353L24.3942 68.9548L24.4222 68.8672C24.4621 68.7699 24.5295 68.678 24.6237 68.5915C24.7173 68.5058 24.8244 68.4368 24.9443 68.385C25.0645 68.333 25.1861 68.307 25.3095 68.307C25.5035 68.307 25.6602 68.3508 25.7791 68.4385C25.8975 68.5261 25.9836 68.6438 26.0378 68.7911C26.0915 68.9393 26.1183 69.1058 26.1183 69.2908V70.6693C26.1183 70.7083 26.1054 70.7423 26.0794 70.7717C26.0528 70.8008 26.0195 70.8155 25.9796 70.8155C25.9396 70.8155 25.9066 70.8008 25.8808 70.7717C25.8543 70.7425 25.8411 70.7083 25.8411 70.6693V69.3055C25.8411 69.1723 25.821 69.0507 25.781 68.9401C25.741 68.8298 25.6777 68.7422 25.5913 68.6771C25.5049 68.6121 25.3895 68.5799 25.2449 68.5799C25.1185 68.5799 24.9977 68.6124 24.8823 68.6771C24.7664 68.7422 24.6725 68.8298 24.6003 68.9401C24.5276 69.0504 24.4911 69.1723 24.4914 69.3055V70.6693C24.4914 70.7083 24.4785 70.7423 24.4525 70.7717C24.4259 70.8008 24.3926 70.8155 24.3527 70.8155C24.3127 70.8155 24.2797 70.8008 24.2539 70.7717C24.2273 70.7425 24.2142 70.7083 24.2139 70.6693V69.2908C24.2139 69.1576 24.1954 69.0374 24.1586 68.9305C24.1216 68.8233 24.0615 68.7379 23.9783 68.6743C23.8951 68.6112 23.7827 68.5799 23.641 68.5799C23.5146 68.5799 23.3955 68.6112 23.2831 68.6743C23.1704 68.7379 23.0794 68.8233 23.0104 68.9305C22.9407 69.0377 22.9061 69.1579 22.9061 69.2908V70.6693C22.9061 70.7083 22.8921 70.7423 22.8645 70.7717C22.8368 70.8008 22.8044 70.8155 22.7673 70.8155C22.7241 70.8155 22.6903 70.8008 22.6656 70.7717C22.6409 70.7425 22.6286 70.7083 22.6286 70.6693V68.4871C22.6286 68.4481 22.6417 68.4142 22.6683 68.385C22.6941 68.3559 22.7271 68.3412 22.7673 68.3412C22.8073 68.3412 22.8406 68.3559 22.8671 68.385C22.8929 68.4142 22.9061 68.4484 22.9061 68.4871V68.9401L22.7813 69.1203C22.7904 69.023 22.8207 68.9254 22.8717 68.8281C22.9222 68.7309 22.9892 68.6429 23.0724 68.5652C23.1556 68.4871 23.2506 68.4246 23.3571 68.3771C23.4631 68.3305 23.5747 68.307 23.6917 68.307ZM27.1119 68.4289V70.6693C27.1119 70.7083 27.098 70.7423 27.0704 70.7717C27.0427 70.8008 27.0102 70.8155 26.9735 70.8155C26.9335 70.8155 26.9005 70.8008 26.8745 70.7717C26.8479 70.7425 26.8348 70.7083 26.8348 70.6693V68.4289C26.8348 68.3898 26.8479 68.3559 26.8745 68.3265C26.9002 68.2974 26.9332 68.2827 26.9735 68.2827C27.0135 68.2827 27.0467 68.2974 27.0733 68.3265C27.0991 68.3556 27.1122 68.3898 27.1119 68.4289ZM26.9735 67.9563C26.9088 67.9563 26.8605 67.9408 26.8283 67.9094C26.7956 67.8789 26.7792 67.8345 26.7792 67.7759V67.7273C26.7792 67.6688 26.7972 67.6241 26.8329 67.593C26.868 67.5624 26.9163 67.5472 26.978 67.5472C27.0365 67.5472 27.0822 67.5624 27.1149 67.593C27.1468 67.6241 27.1629 67.669 27.1629 67.7273V67.7759C27.1629 67.8345 27.1468 67.8789 27.1149 67.9094C27.0822 67.9405 27.0352 67.9561 26.9735 67.9563ZM28.8545 68.268C29.0024 68.268 29.1379 68.2849 29.2613 68.3186C29.3845 68.3531 29.484 68.3994 29.56 68.458C29.6351 68.5165 29.6727 68.5799 29.6727 68.648C29.6727 68.6805 29.6609 68.7119 29.6375 68.7425C29.6147 68.7736 29.5863 68.7891 29.5524 68.7891C29.5125 68.7891 29.4811 68.7795 29.4583 68.76C29.4349 68.7405 29.4124 68.7179 29.3906 68.6918C29.3692 68.6658 29.3367 68.6415 29.2938 68.6186C29.2538 68.5991 29.1961 68.5813 29.1207 68.5652C29.045 68.549 28.9608 68.5408 28.8685 68.5408C28.6959 68.5408 28.5403 68.5864 28.4016 68.6771C28.2628 68.7682 28.1536 68.8904 28.0734 69.0445C27.9932 69.1991 27.9532 69.3722 27.9532 69.5636C27.9532 69.7585 27.9907 69.9338 28.0661 70.0896C28.1418 70.2454 28.2486 70.3679 28.386 70.4569C28.5228 70.5466 28.6806 70.5913 28.8591 70.5913C28.9822 70.5913 29.0788 70.58 29.1486 70.5573C29.2176 70.5347 29.2753 70.5087 29.3214 70.4793C29.3831 70.4437 29.4269 70.4086 29.4526 70.3741C29.4792 70.3404 29.5141 70.3235 29.557 70.3235C29.594 70.3235 29.6233 70.3359 29.645 70.3605C29.6665 70.3846 29.6775 70.4159 29.6772 70.455C29.6772 70.507 29.6407 70.5644 29.5683 70.6275C29.4961 70.6911 29.3971 70.7462 29.2704 70.7932C29.144 70.8407 28.9978 70.8641 28.8314 70.8641C28.6033 70.8641 28.4021 70.8073 28.2277 70.6936C28.0538 70.58 27.9183 70.4247 27.8212 70.2279C27.7243 70.0316 27.676 69.8102 27.676 69.5636C27.676 69.3267 27.7254 69.1106 27.8238 68.9158C27.9223 68.721 28.0594 68.564 28.2352 68.4453C28.411 68.3271 28.6173 68.268 28.8545 68.268ZM31.3366 70.421C31.3119 70.382 31.3001 70.3438 31.3015 70.3059C31.3033 70.2689 31.3227 70.2389 31.3597 70.2163C31.3844 70.1937 31.4131 70.1838 31.4456 70.1872C31.4775 70.1903 31.5075 70.2067 31.5354 70.2358C31.6186 70.3495 31.7198 70.4411 31.8387 70.5104C31.957 70.5805 32.0979 70.6156 32.261 70.6159C32.3474 70.6159 32.433 70.6003 32.5181 70.5689C32.6026 70.5384 32.6724 70.4914 32.7279 70.4278C32.7835 70.3648 32.8111 70.2847 32.8111 70.1872C32.8111 70.0865 32.7835 70.0053 32.7279 69.9434C32.6724 69.8818 32.6007 69.8331 32.5125 69.7975C32.425 69.7619 32.3319 69.7311 32.2334 69.7048C32.1287 69.6756 32.027 69.642 31.9283 69.6047C31.8298 69.5676 31.7426 69.5207 31.6667 69.4633C31.5915 69.4067 31.5309 69.338 31.4845 69.2568C31.4383 69.1757 31.4152 69.0767 31.4152 68.9596C31.4152 68.8233 31.4506 68.7032 31.5215 68.5991C31.5923 68.4953 31.6884 68.4139 31.81 68.3556C31.932 68.2971 32.07 68.268 32.224 68.268C32.301 68.268 32.3842 68.2784 32.4735 68.2991C32.5629 68.3206 32.6506 68.3556 32.7371 68.4043C32.8235 68.4529 32.9005 68.5196 32.9681 68.6042C32.9957 68.6333 33.0097 68.6664 33.0097 68.7034C33.0097 68.741 32.9944 68.7744 32.9635 68.8038C32.9388 68.8233 32.9104 68.8329 32.8785 68.8329C32.8457 68.8329 32.8186 68.8199 32.7972 68.7939C32.7231 68.7063 32.6353 68.6398 32.5337 68.5943C32.432 68.5488 32.3225 68.5261 32.2055 68.5261C32.1161 68.5261 32.0324 68.5414 31.954 68.5719C31.8752 68.603 31.8094 68.6494 31.7571 68.7114C31.7048 68.773 31.6785 68.8542 31.6787 68.9548C31.6849 69.049 31.7163 69.1253 31.7729 69.1836C31.8303 69.2421 31.906 69.2908 32.0002 69.3298C32.0939 69.3688 32.1993 69.4044 32.3166 69.437C32.415 69.463 32.51 69.4938 32.6013 69.5294C32.692 69.5651 32.7719 69.6097 32.8414 69.6629C32.9104 69.7169 32.9659 69.7842 33.0078 69.8657C33.0491 69.9468 33.0698 70.0492 33.0698 70.1725C33.0698 70.3153 33.0322 70.4388 32.9571 70.5426C32.8814 70.6464 32.7803 70.7261 32.6539 70.7813C32.5275 70.8364 32.3874 70.8641 32.2331 70.8641C32.0667 70.8641 31.9055 70.8299 31.7498 70.7618C31.5945 70.6936 31.4568 70.5799 31.3366 70.421ZM35.82 69.5685C35.82 69.8153 35.7684 70.0367 35.6657 70.233C35.5621 70.4298 35.4225 70.5839 35.2468 70.6956C35.071 70.8079 34.8725 70.8641 34.6505 70.8641C34.4319 70.8641 34.2338 70.8079 34.057 70.6956C33.8796 70.5839 33.7393 70.4298 33.6365 70.233C33.5329 70.0367 33.4811 69.8153 33.4811 69.5685C33.4811 69.3185 33.5329 69.0959 33.6365 68.9011C33.7395 68.7063 33.8796 68.5521 34.057 68.4385C34.2338 68.3248 34.4316 68.268 34.6505 68.268C34.8725 68.268 35.071 68.3248 35.2468 68.4385C35.4225 68.5521 35.5621 68.7063 35.6657 68.9011C35.7687 69.0959 35.82 69.3185 35.82 69.5685ZM35.5425 69.5685C35.5425 69.3705 35.5039 69.1941 35.4271 69.0397C35.3501 68.8858 35.2446 68.7639 35.111 68.6743C34.9766 68.5852 34.8231 68.5408 34.6505 68.5408C34.481 68.5408 34.3293 68.5852 34.1957 68.6743C34.0613 68.7639 33.955 68.8858 33.8769 69.0397C33.798 69.1943 33.7586 69.3705 33.7586 69.5685C33.7586 69.7664 33.798 69.942 33.8769 70.0944C33.9553 70.2471 34.0616 70.3679 34.1957 70.4569C34.3293 70.5466 34.481 70.5913 34.6505 70.5913C34.8231 70.5913 34.9766 70.5466 35.111 70.4569C35.2446 70.3679 35.3501 70.2471 35.4271 70.0944C35.5041 69.9417 35.5428 69.7664 35.5425 69.5685ZM36.6934 67.3571V70.6693C36.6934 70.7083 36.6794 70.7423 36.6518 70.7717C36.6242 70.8008 36.5917 70.8155 36.5549 70.8155C36.5149 70.8155 36.4819 70.8008 36.4559 70.7717C36.4293 70.7425 36.4162 70.7083 36.4162 70.6693V67.3571C36.4162 67.3181 36.4301 67.2842 36.4578 67.2548C36.4854 67.2256 36.5179 67.2109 36.5549 67.2109C36.5949 67.2109 36.6282 67.2256 36.6547 67.2548C36.6805 67.2839 36.6936 67.3181 36.6934 67.3571ZM39.194 68.3412C39.234 68.3412 39.2673 68.3559 39.2938 68.385C39.3196 68.4142 39.3327 68.4484 39.3327 68.4871V69.8608C39.3327 70.1824 39.2463 70.4275 39.0738 70.5964C38.9012 70.7652 38.6686 70.8497 38.3758 70.8494C38.0863 70.8494 37.8561 70.7649 37.6854 70.5964C37.5142 70.4275 37.4284 70.1824 37.4284 69.8608V68.4871C37.4284 68.4481 37.4415 68.4142 37.4681 68.385C37.4938 68.3559 37.5268 68.3412 37.5671 68.3412C37.6071 68.3412 37.6401 68.3559 37.6661 68.385C37.6927 68.4142 37.7058 68.4484 37.7058 68.4871V69.8608C37.7058 70.0947 37.7654 70.2723 37.8843 70.3936C38.0026 70.5158 38.1665 70.5768 38.3758 70.5768C38.5884 70.5768 38.7547 70.5158 38.8752 70.3936C38.9954 70.2723 39.0555 70.0944 39.0553 69.8608V68.4871C39.0553 68.4481 39.0676 68.4142 39.0923 68.385C39.117 68.3559 39.1508 68.3412 39.194 68.3412ZM39.9059 68.3361H40.9827C41.0197 68.3361 41.0506 68.3497 41.0753 68.3771C41.1 68.4051 41.1123 68.4385 41.1121 68.4775C41.1121 68.5131 41.0997 68.544 41.0753 68.57C41.0506 68.596 41.0197 68.609 40.9827 68.609H39.9059C39.8689 68.609 39.8372 68.5951 39.8106 68.5671C39.7849 68.54 39.7717 68.5083 39.7717 68.4727C39.7717 68.4337 39.7846 68.4011 39.8106 68.3751C39.8372 68.3491 39.8689 68.3361 39.9059 68.3361ZM40.3819 67.6495C40.4219 67.6495 40.4549 67.6642 40.4809 67.6934C40.5075 67.7225 40.5206 67.7567 40.5206 67.7954V70.2406C40.5206 70.3317 40.5319 70.3998 40.5547 70.4453C40.5781 70.4909 40.6084 70.5206 40.6454 70.535C40.6824 70.55 40.7195 70.5573 40.7562 70.5573C40.7809 70.5573 40.8035 70.5531 40.8239 70.5446C40.8435 70.5367 40.8657 70.533 40.8904 70.533C40.9181 70.533 40.9422 70.5443 40.9623 70.5669C40.9819 70.5896 40.9918 70.619 40.9921 70.6546C40.9921 70.7001 40.9674 70.738 40.918 70.7686C40.8687 70.7997 40.8102 70.8152 40.7423 70.8155C40.7147 70.8155 40.6731 70.813 40.6175 70.8076C40.562 70.8031 40.5051 70.7852 40.4466 70.7541C40.3881 70.7236 40.3393 70.6693 40.3006 70.5913C40.2625 70.5132 40.2432 70.4012 40.2432 70.2553V67.7954C40.2432 67.7564 40.2563 67.7225 40.2829 67.6934C40.3087 67.6642 40.3417 67.6495 40.3819 67.6495ZM41.8932 68.4289V70.6693C41.8932 70.7083 41.8792 70.7423 41.8516 70.7717C41.8239 70.8008 41.7915 70.8155 41.7547 70.8155C41.7147 70.8155 41.6815 70.8008 41.6549 70.7717C41.6291 70.7425 41.616 70.7083 41.616 70.6693V68.4289C41.616 68.3898 41.6289 68.3559 41.6549 68.3265C41.6815 68.2974 41.7147 68.2827 41.7547 68.2827C41.7947 68.2827 41.828 68.2974 41.8545 68.3265C41.8803 68.3556 41.8934 68.3898 41.8932 68.4289ZM41.7547 67.9563C41.69 67.9563 41.6412 67.9408 41.6085 67.9094C41.5765 67.8789 41.5604 67.8345 41.5604 67.7759V67.7273C41.5604 67.6688 41.5779 67.6241 41.6133 67.593C41.649 67.5624 41.6978 67.5472 41.7593 67.5472C41.8178 67.5472 41.8631 67.5624 41.8951 67.593C41.9278 67.6241 41.9442 67.669 41.9442 67.7273V67.7759C41.9442 67.8345 41.9278 67.8789 41.8951 67.9094C41.8631 67.9405 41.8162 67.9561 41.7547 67.9563ZM44.796 69.5685C44.796 69.8153 44.7442 70.0367 44.6407 70.233C44.5376 70.4298 44.3984 70.5839 44.2229 70.6956C44.0471 70.8079 43.8485 70.8641 43.6266 70.8641C43.4079 70.8641 43.2099 70.8079 43.0331 70.6956C42.8557 70.5839 42.7151 70.4298 42.6115 70.233C42.5085 70.0367 42.4572 69.8153 42.4572 69.5685C42.4572 69.3185 42.5087 69.0959 42.6115 68.9011C42.7151 68.7063 42.8554 68.5521 43.0331 68.4385C43.2099 68.3248 43.4077 68.268 43.6266 68.268C43.8485 68.268 44.0471 68.3248 44.2229 68.4385C44.3986 68.5521 44.5379 68.7063 44.6407 68.9011C44.7442 69.0959 44.796 69.3185 44.796 69.5685ZM44.5186 69.5685C44.5186 69.3705 44.4799 69.1941 44.4032 69.0397C44.3262 68.8858 44.2204 68.7639 44.086 68.6743C43.9524 68.5852 43.7992 68.5408 43.6266 68.5408C43.457 68.5408 43.3054 68.5852 43.1718 68.6743C43.0374 68.7639 42.9308 68.8858 42.8519 69.0397C42.7736 69.1943 42.7344 69.3705 42.7344 69.5685C42.7344 69.7664 42.7736 69.942 42.8519 70.0944C42.9308 70.2471 43.0374 70.3679 43.1718 70.4569C43.3054 70.5466 43.457 70.5913 43.6266 70.5913C43.7992 70.5913 43.9524 70.5466 44.086 70.4569C44.2204 70.3679 44.3262 70.2471 44.4032 70.0944C44.4802 69.9417 44.5188 69.7664 44.5186 69.5685ZM46.4782 68.268C46.6816 68.268 46.844 68.3109 46.9655 68.3966C47.0876 68.4829 47.1754 68.5999 47.229 68.7473C47.2832 68.8954 47.3103 69.0586 47.3103 69.2373V70.6693C47.3103 70.7083 47.2964 70.7423 47.2687 70.7717C47.2411 70.8008 47.2086 70.8155 47.1716 70.8155C47.1284 70.8155 47.0946 70.8008 47.0699 70.7717C47.0452 70.7425 47.0329 70.7083 47.0329 70.6693V69.252C47.0329 69.1222 47.0127 69.0037 46.973 68.8963C46.933 68.7891 46.8676 68.7032 46.7769 68.6381C46.6856 68.5731 46.5662 68.5408 46.4184 68.5408C46.2858 68.5408 46.1602 68.5734 46.0411 68.6381C45.9228 68.7032 45.8267 68.7891 45.7526 68.8963C45.6786 69.0035 45.6418 69.1219 45.6418 69.252V70.6693C45.6418 70.7083 45.6279 70.7423 45.6002 70.7717C45.5726 70.8008 45.5401 70.8155 45.5031 70.8155C45.4599 70.8155 45.4261 70.8008 45.4014 70.7717C45.3767 70.7425 45.3644 70.7083 45.3644 70.6693V68.4871C45.3644 68.4481 45.3772 68.4142 45.4033 68.385C45.4298 68.3559 45.4631 68.3412 45.5031 68.3412C45.5431 68.3412 45.5761 68.3559 45.6021 68.385C45.6287 68.4142 45.6418 68.4484 45.6418 68.4871V68.8963L45.5356 69.0716C45.5417 68.9678 45.5731 68.8677 45.6297 68.7716C45.6872 68.676 45.7604 68.59 45.8498 68.5134C45.9391 68.4373 46.0384 68.3774 46.1474 68.3333C46.2571 68.2897 46.3674 68.268 46.4782 68.268ZM52.1033 68.2728C52.1371 68.2728 52.1685 68.2858 52.1975 68.3118C52.227 68.3378 52.2418 68.3734 52.2421 68.419C52.2421 68.4286 52.2404 68.4402 52.2375 68.4532C52.2345 68.4662 52.2313 68.4758 52.2281 68.4823L51.5165 70.7228C51.5041 70.7519 51.4848 70.7754 51.4583 70.7932C51.4325 70.8113 51.4057 70.8189 51.3778 70.8155C51.3222 70.8124 51.2806 70.7813 51.253 70.7228L50.6012 69.1058L50.6844 69.1253L50.1066 70.7228C50.082 70.7813 50.0404 70.8121 49.9819 70.8155C49.9542 70.8186 49.9263 70.8113 49.8987 70.7932C49.871 70.7756 49.8525 70.7522 49.8431 70.7228L49.113 68.4823C49.1039 68.4597 49.0991 68.4385 49.0991 68.419C49.0991 68.3768 49.1119 68.3418 49.138 68.3138C49.1645 68.2866 49.1994 68.2728 49.2423 68.2728C49.27 68.2728 49.2955 68.281 49.318 68.2974C49.3414 68.3135 49.3577 68.3381 49.3671 68.3703L50.0235 70.4453L49.9357 70.4403L50.532 68.8573C50.5566 68.7956 50.5998 68.7648 50.6613 68.7648C50.6922 68.7648 50.7182 68.773 50.7399 68.7891C50.7614 68.8052 50.7786 68.8281 50.7906 68.8573L51.4239 70.4453L51.3222 70.4502L51.974 68.3703C51.9925 68.3053 52.0357 68.273 52.1033 68.2728ZM53.0417 68.4289V70.6693C53.0417 70.7083 53.0277 70.7423 53.0001 70.7717C52.9725 70.8008 52.94 70.8155 52.903 70.8155C52.863 70.8155 52.8297 70.8008 52.8031 70.7717C52.7774 70.7425 52.7642 70.7083 52.7642 70.6693V68.4289C52.7642 68.3898 52.7771 68.3559 52.8031 68.3265C52.8297 68.2974 52.863 68.2827 52.903 68.2827C52.9429 68.2827 52.976 68.2974 53.002 68.3265C53.0285 68.3556 53.0417 68.3898 53.0417 68.4289ZM52.903 67.9563C52.8383 67.9563 52.7895 67.9408 52.757 67.9094C52.7251 67.8789 52.709 67.8345 52.709 67.7759V67.7273C52.709 67.6688 52.7264 67.6241 52.7616 67.593C52.7972 67.5624 52.8461 67.5472 52.9075 67.5472C52.966 67.5472 53.0114 67.5624 53.0436 67.593C53.0763 67.6241 53.0927 67.669 53.0924 67.7273V67.7759C53.0924 67.8345 53.076 67.8789 53.0436 67.9094C53.0116 67.9405 52.9647 67.9561 52.903 67.9563ZM53.61 68.3361H54.6871C54.7242 68.3361 54.755 68.3497 54.7794 68.3771C54.8041 68.4051 54.8165 68.4385 54.8165 68.4775C54.8165 68.5131 54.8041 68.544 54.7794 68.57C54.7547 68.596 54.7239 68.609 54.6871 68.609H53.61C53.573 68.609 53.5413 68.5951 53.515 68.5671C53.4893 68.54 53.4761 68.5083 53.4761 68.4727C53.4761 68.4337 53.489 68.4011 53.515 68.3751C53.5416 68.3491 53.5733 68.3361 53.61 68.3361ZM54.0863 67.6495C54.1263 67.6495 54.1593 67.6642 54.1851 67.6934C54.2116 67.7225 54.2248 67.7567 54.2248 67.7954V70.2406C54.2248 70.3317 54.2361 70.3998 54.2591 70.4453C54.2825 70.4909 54.3128 70.5206 54.3496 70.535C54.3866 70.55 54.4236 70.5573 54.4607 70.5573C54.4853 70.5573 54.5076 70.5531 54.5272 70.5446C54.5476 70.5367 54.5701 70.533 54.5946 70.533C54.6222 70.533 54.6461 70.5443 54.6659 70.5669C54.6863 70.5896 54.6965 70.619 54.6963 70.6546C54.6963 70.7001 54.6716 70.738 54.6225 70.7686C54.5731 70.7997 54.5146 70.8152 54.4467 70.8155C54.4191 70.8155 54.3775 70.813 54.3219 70.8076C54.2664 70.8031 54.2095 70.7852 54.151 70.7541C54.0925 70.7236 54.0437 70.6693 54.0048 70.5913C53.9666 70.5132 53.9473 70.4012 53.9476 70.2553V67.7954C53.9476 67.7564 53.9605 67.7225 53.9862 67.6934C54.0128 67.6642 54.0461 67.6495 54.0863 67.6495ZM56.4063 68.307C56.6004 68.307 56.7576 68.3508 56.8778 68.4385C56.998 68.5261 57.0863 68.6446 57.1432 68.7939C57.2006 68.9432 57.2291 69.1089 57.2291 69.2908V70.6693C57.2291 70.7083 57.2151 70.7423 57.1875 70.7717C57.1598 70.8008 57.1274 70.8155 57.0906 70.8155C57.0474 70.8155 57.0136 70.8008 56.9889 70.7717C56.9642 70.7425 56.9519 70.7083 56.9519 70.6693V69.2908C56.9519 69.1576 56.9326 69.0374 56.8936 68.9305C56.8555 68.8233 56.7933 68.7379 56.7069 68.6743C56.6205 68.6112 56.5051 68.5799 56.3602 68.5799C56.2309 68.5799 56.1082 68.6112 55.9923 68.6743C55.8772 68.7379 55.7841 68.8233 55.7132 68.9305C55.6424 69.0377 55.607 69.1579 55.607 69.2908V70.6693C55.607 70.7083 55.593 70.7423 55.5651 70.7717C55.5375 70.8008 55.505 70.8155 55.4683 70.8155C55.425 70.8155 55.3912 70.8008 55.3666 70.7717C55.3419 70.7425 55.3295 70.7083 55.3295 70.6693V67.3571C55.3295 67.3181 55.3424 67.2842 55.3684 67.2548C55.395 67.2256 55.4283 67.2109 55.4683 67.2109C55.5082 67.2109 55.5412 67.2256 55.567 67.2548C55.5936 67.2839 55.6067 67.3181 55.607 67.3571V68.9353L55.5005 69.1058C55.5066 69.0052 55.5364 68.9068 55.5901 68.8106C55.6443 68.715 55.7146 68.6291 55.801 68.5524C55.8874 68.4764 55.9829 68.4164 56.0876 68.3723C56.1922 68.3288 56.2987 68.307 56.4063 68.307ZM59.4847 68.4289V70.6693C59.4847 70.7083 59.4707 70.7423 59.4431 70.7717C59.4155 70.8008 59.383 70.8155 59.346 70.8155C59.306 70.8155 59.2727 70.8008 59.2461 70.7717C59.2204 70.7425 59.2072 70.7083 59.2075 70.6693V68.4289C59.2075 68.3898 59.2204 68.3559 59.2461 68.3265C59.2727 68.2974 59.306 68.2827 59.346 68.2827C59.3859 68.2827 59.4189 68.2974 59.445 68.3265C59.4715 68.3556 59.4847 68.3898 59.4847 68.4289ZM59.346 67.9563C59.2813 67.9563 59.2325 67.9408 59.2 67.9094C59.1681 67.8789 59.152 67.8345 59.152 67.7759V67.7273C59.152 67.6688 59.1694 67.6241 59.2045 67.593C59.2402 67.5624 59.2891 67.5472 59.3508 67.5472C59.4093 67.5472 59.4546 67.5624 59.4866 67.593C59.5193 67.6241 59.5357 67.669 59.5357 67.7273V67.7759C59.5357 67.8345 59.5193 67.8789 59.4866 67.9094C59.4546 67.9405 59.4077 67.9561 59.346 67.9563ZM61.3196 68.268C61.523 68.268 61.6853 68.3109 61.8069 68.3966C61.929 68.4829 62.0167 68.5999 62.0704 68.7473C62.1246 68.8954 62.1517 69.0586 62.1517 69.2373V70.6693C62.1517 70.7083 62.1377 70.7423 62.1101 70.7717C62.0824 70.8008 62.05 70.8155 62.0129 70.8155C61.9697 70.8155 61.9359 70.8008 61.9112 70.7717C61.8866 70.7425 61.8742 70.7083 61.8742 70.6693V69.252C61.8742 69.1222 61.8541 69.0037 61.8141 68.8963C61.7741 68.7891 61.7084 68.7032 61.6174 68.6381C61.5267 68.5731 61.4076 68.5408 61.2595 68.5408C61.1269 68.5408 61.0013 68.5734 60.8824 68.6381C60.7641 68.7032 60.668 68.7891 60.594 68.8963C60.5199 69.0035 60.4832 69.1219 60.4832 69.252V70.6693C60.4832 70.7083 60.4692 70.7423 60.4416 70.7717C60.4139 70.8008 60.3815 70.8155 60.3444 70.8155C60.3012 70.8155 60.2674 70.8008 60.2427 70.7717C60.218 70.7425 60.2057 70.7083 60.2057 70.6693V68.4871C60.2057 68.4481 60.2186 68.4142 60.2446 68.385C60.2712 68.3559 60.3045 68.3412 60.3444 68.3412C60.3844 68.3412 60.4174 68.3559 60.4435 68.385C60.47 68.4142 60.4832 68.4484 60.4832 68.4871V68.8963L60.3769 69.0716C60.3831 68.9678 60.4145 68.8677 60.4711 68.7716C60.5285 68.676 60.6018 68.59 60.6911 68.5134C60.7805 68.4373 60.8798 68.3774 60.9887 68.3333C61.0985 68.2897 61.2087 68.268 61.3196 68.268ZM65.0588 69.5685C65.0588 69.8153 65.007 70.0367 64.9037 70.233C64.8007 70.4298 64.6614 70.5839 64.4856 70.6956C64.3099 70.8079 64.1113 70.8641 63.8894 70.8641C63.6707 70.8641 63.4724 70.8079 63.295 70.6956C63.1182 70.5839 62.9779 70.4298 62.8746 70.233C62.7715 70.0367 62.7203 69.8153 62.7203 69.5685C62.7203 69.3185 62.7718 69.0959 62.8746 68.9011C62.9781 68.7063 63.1182 68.5521 63.295 68.4385C63.4724 68.3248 63.6707 68.268 63.8894 68.268C64.1113 68.268 64.3099 68.3248 64.4856 68.4385C64.6614 68.5521 64.8007 68.7063 64.9037 68.9011C65.0073 69.0959 65.0591 69.3185 65.0588 69.5685ZM64.7816 69.5685C64.7816 69.3705 64.743 69.1941 64.666 69.0397C64.589 68.8858 64.4832 68.7639 64.3491 68.6743C64.2154 68.5852 64.0622 68.5408 63.8894 68.5408C63.7198 68.5408 63.5679 68.5852 63.4338 68.6743C63.3001 68.7639 63.1936 68.8858 63.115 69.0397C63.0366 69.1943 62.9975 69.3705 62.9975 69.5685C62.9975 69.7664 63.0366 69.942 63.115 70.0944C63.1939 70.2471 63.3001 70.3679 63.4338 70.4569C63.5682 70.5466 63.7201 70.5913 63.8894 70.5913C64.062 70.5913 64.2152 70.5466 64.3491 70.4569C64.4835 70.3679 64.5892 70.2471 64.666 70.0944C64.743 69.9417 64.7816 69.7664 64.7816 69.5685ZM65.5488 68.2728C65.5735 68.2728 65.5982 68.281 65.6229 68.2974C65.6475 68.3135 65.6661 68.3381 65.6781 68.3703L66.4872 70.3964L66.4271 70.4355L67.2543 68.3703C67.279 68.3053 67.3236 68.2745 67.3885 68.2779C67.4194 68.2779 67.4486 68.2883 67.4762 68.309C67.5039 68.3305 67.5178 68.3607 67.5178 68.3994C67.5178 68.419 67.5154 68.4342 67.5103 68.4453C67.506 68.4569 67.5023 68.4693 67.4993 68.4823L66.5934 70.7228C66.5687 70.7813 66.5271 70.8121 66.4687 70.8155C66.441 70.8186 66.4139 70.8113 66.3873 70.7932C66.3616 70.7756 66.3423 70.7522 66.3299 70.7228L65.4195 68.4823C65.4165 68.4758 65.4133 68.4662 65.4101 68.4532C65.4071 68.4402 65.4055 68.4272 65.4055 68.4142C65.4055 68.3785 65.4178 68.346 65.4425 68.3166C65.4672 68.2875 65.5026 68.2728 65.5488 68.2728ZM69.9583 68.3265C69.9983 68.3265 70.0313 68.3412 70.0571 68.3703C70.0837 68.3995 70.0968 68.4354 70.0968 68.4775V70.6693C70.0968 70.7083 70.0829 70.7423 70.0552 70.7717C70.0276 70.8008 69.9951 70.8155 69.9583 70.8155C69.9151 70.8155 69.8813 70.8008 69.8566 70.7717C69.832 70.7425 69.8196 70.7083 69.8196 70.6693V70.0896L69.8982 70.0506C69.8982 70.1416 69.8741 70.2341 69.8261 70.3283C69.7786 70.4224 69.7134 70.5101 69.6302 70.5913C69.547 70.6724 69.449 70.738 69.3361 70.7881C69.2239 70.8387 69.1016 70.8641 68.969 70.8641C68.7626 70.8641 68.5767 70.8073 68.4117 70.6936C68.2472 70.58 68.1178 70.4241 68.0234 70.2262C67.9297 70.0283 67.8828 69.8057 67.883 69.5588C67.883 69.3055 67.9308 69.0821 68.0263 68.8887C68.1219 68.6958 68.2512 68.5442 68.4146 68.4337C68.578 68.3234 68.7613 68.268 68.9644 68.268C69.097 68.268 69.2207 68.2923 69.3361 68.3412C69.452 68.3898 69.5529 68.4566 69.6393 68.5408C69.7257 68.6254 69.7933 68.7218 69.8427 68.8301C69.8921 68.9393 69.9168 69.0521 69.9168 69.1692L69.8196 69.0959V68.4775C69.8196 68.4354 69.832 68.3995 69.8566 68.3703C69.8813 68.3412 69.9151 68.3265 69.9583 68.3265ZM68.9969 70.5913C69.1603 70.5913 69.3049 70.5466 69.4313 70.4569C69.5577 70.3679 69.657 70.2446 69.7289 70.0868C69.8016 69.9296 69.8381 69.7537 69.8381 69.5588C69.8381 69.3671 69.8016 69.1952 69.7289 69.0425C69.6567 68.8898 69.5577 68.7682 69.4313 68.6771C69.3049 68.5861 69.16 68.5408 68.9969 68.5408C68.8367 68.5408 68.6923 68.5847 68.5643 68.6723C68.4369 68.76 68.3365 68.8802 68.2638 69.0326C68.1916 69.1853 68.1557 69.3606 68.1557 69.5588C68.1557 69.7537 68.1911 69.9296 68.2619 70.0868C68.3328 70.2446 68.4321 70.3679 68.5595 70.4569C68.6878 70.5466 68.8335 70.5913 68.9969 70.5913ZM70.67 68.3361H71.7471C71.7841 68.3361 71.815 68.3497 71.8394 68.3771C71.8641 68.4051 71.8764 68.4385 71.8764 68.4775C71.8764 68.5131 71.8641 68.544 71.8394 68.57C71.8147 68.596 71.7838 68.609 71.7471 68.609H70.67C70.6329 68.609 70.6013 68.5951 70.5747 68.5671C70.549 68.54 70.5358 68.5083 70.5361 68.4727C70.5361 68.4337 70.549 68.4011 70.5747 68.3751C70.6013 68.3491 70.6329 68.3361 70.67 68.3361ZM71.146 67.6495C71.186 67.6495 71.219 67.6642 71.245 67.6934C71.2716 67.7225 71.2847 67.7567 71.2847 67.7954V70.2406C71.2847 70.3317 71.2965 70.3998 71.3199 70.4453C71.3427 70.4909 71.3725 70.5206 71.4095 70.535C71.4465 70.55 71.4836 70.5573 71.5206 70.5573C71.5453 70.5573 71.5675 70.5531 71.5871 70.5446C71.6075 70.5367 71.6301 70.533 71.6545 70.533C71.6821 70.533 71.706 70.5443 71.7256 70.5669C71.746 70.5896 71.7562 70.619 71.7562 70.6546C71.7562 70.7001 71.7315 70.738 71.6821 70.7686C71.6328 70.7997 71.5743 70.8152 71.5066 70.8155C71.479 70.8155 71.4374 70.813 71.3819 70.8076C71.3263 70.8031 71.2694 70.7852 71.2109 70.7541C71.1524 70.7236 71.1041 70.6693 71.0658 70.5913C71.0269 70.5132 71.0075 70.4012 71.0075 70.2553V67.7954C71.0075 67.7564 71.0204 67.7225 71.0462 67.6934C71.0727 67.6642 71.106 67.6495 71.146 67.6495ZM72.6575 68.4289V70.6693C72.6575 70.7083 72.6436 70.7423 72.6159 70.7717C72.5883 70.8008 72.5558 70.8155 72.5188 70.8155C72.4788 70.8155 72.4455 70.8008 72.419 70.7717C72.3932 70.7425 72.3801 70.7083 72.3801 70.6693V68.4289C72.3801 68.3898 72.3929 68.3559 72.419 68.3265C72.4455 68.2974 72.4788 68.2827 72.5188 68.2827C72.5588 68.2827 72.5918 68.2974 72.6178 68.3265C72.6444 68.3556 72.6575 68.3898 72.6575 68.4289ZM72.5188 67.9563C72.4541 67.9563 72.4053 67.9408 72.3728 67.9094C72.3409 67.8789 72.3248 67.8345 72.3248 67.7759V67.7273C72.3248 67.6688 72.3428 67.6241 72.3785 67.593C72.4136 67.5624 72.4619 67.5472 72.5234 67.5472C72.5819 67.5472 72.6275 67.5624 72.6602 67.593C72.6921 67.6241 72.7082 67.669 72.7082 67.7273V67.7759C72.7082 67.8345 72.6921 67.8789 72.6602 67.9094C72.6275 67.9405 72.5805 67.9561 72.5188 67.9563ZM73.323 68.2728C73.3477 68.2728 73.3724 68.281 73.3971 68.2974C73.4217 68.3135 73.4403 68.3381 73.4526 68.3703L74.2614 70.3964L74.2013 70.4355L75.0285 68.3703C75.0532 68.3053 75.0978 68.2745 75.1627 68.2779C75.1936 68.2779 75.2228 68.2883 75.2505 68.309C75.2781 68.3305 75.292 68.3607 75.292 68.3994C75.292 68.419 75.2899 68.4342 75.2856 68.4453C75.2808 68.4569 75.2767 68.4693 75.2735 68.4823L74.3676 70.7228C74.3429 70.7813 74.3013 70.8121 74.2428 70.8155C74.2152 70.8186 74.1884 70.8113 74.1623 70.7932C74.1358 70.7756 74.1165 70.7522 74.1041 70.7228L73.1937 68.4823C73.1907 68.4758 73.1875 68.4662 73.1845 68.4532C73.1816 68.4402 73.18 68.4272 73.1797 68.4142C73.1797 68.3785 73.192 68.346 73.2167 68.3166C73.2414 68.2875 73.2768 68.2728 73.323 68.2728ZM76.8497 70.8641C76.6125 70.8641 76.4029 70.8107 76.221 70.7035C76.0391 70.5964 75.8974 70.447 75.796 70.2553C75.6943 70.0636 75.6436 69.8396 75.6433 69.5832C75.6433 69.3072 75.6951 69.0716 75.7987 68.8768C75.9017 68.6819 76.0356 68.5315 76.2006 68.4257C76.3651 68.3206 76.5398 68.268 76.7249 68.268C76.8605 68.268 76.9925 68.2928 77.1205 68.3429C77.2479 68.3935 77.3612 68.4682 77.4599 68.5671C77.5584 68.6664 77.6386 68.7877 77.7001 68.9305C77.7618 69.0733 77.794 69.239 77.7972 69.4273C77.7972 69.4664 77.7833 69.4995 77.7556 69.5266C77.728 69.5546 77.6955 69.5685 77.6585 69.5685H75.8051L75.7496 69.3055H77.5707L77.5106 69.364V69.2664C77.4953 69.1137 77.4476 68.984 77.3673 68.8768C77.2871 68.7696 77.191 68.6885 77.0789 68.6333C76.9662 68.5782 76.8481 68.5505 76.7249 68.5505C76.6326 68.5505 76.5379 68.57 76.4411 68.609C76.3437 68.648 76.2559 68.7088 76.1776 68.7911C76.0987 68.8742 76.0345 68.9797 75.9854 69.1078C75.936 69.2365 75.9114 69.3883 75.9114 69.5636C75.9114 69.7554 75.9484 69.929 76.0225 70.0848C76.0965 70.2406 76.2028 70.3642 76.3412 70.455C76.48 70.546 76.6479 70.5913 76.8452 70.5913C76.9498 70.5913 77.0453 70.5751 77.1318 70.5426C77.2182 70.5101 77.2944 70.4668 77.3609 70.4131C77.4269 70.3599 77.4814 70.304 77.5246 70.2454C77.5584 70.2163 77.5909 70.2016 77.6215 70.2016C77.6553 70.2016 77.684 70.2146 77.7076 70.2406C77.7304 70.2666 77.7417 70.2958 77.7417 70.3283C77.7417 70.3673 77.7264 70.4012 77.6955 70.4306C77.6032 70.5474 77.483 70.6489 77.3349 70.7346C77.187 70.8209 77.0252 70.8641 76.8497 70.8641ZM79.9002 68.4289V70.6693C79.9002 70.7083 79.8862 70.7423 79.8586 70.7717C79.8309 70.8008 79.7985 70.8155 79.7614 70.8155C79.7215 70.8155 79.6884 70.8008 79.6627 70.7717C79.6361 70.7425 79.623 70.7083 79.623 70.6693V68.4289C79.623 68.3898 79.6361 68.3559 79.6627 68.3265C79.6884 68.2974 79.7215 68.2827 79.7614 68.2827C79.8014 68.2827 79.8344 68.2974 79.8604 68.3265C79.887 68.3556 79.9002 68.3898 79.9002 68.4289ZM79.7614 67.9563C79.6968 67.9563 79.6485 67.9408 79.6165 67.9094C79.5838 67.8789 79.5674 67.8345 79.5674 67.7759V67.7273C79.5674 67.6688 79.5854 67.6241 79.6211 67.593C79.6562 67.5624 79.7045 67.5472 79.7663 67.5472C79.8248 67.5472 79.8704 67.5624 79.9031 67.593C79.935 67.6241 79.9511 67.669 79.9511 67.7273V67.7759C79.9511 67.8345 79.935 67.8789 79.9031 67.9094C79.8704 67.9405 79.8234 67.9561 79.7617 67.9563H79.7614ZM82.5395 67.2109C82.5795 67.2109 82.6128 67.2245 82.6393 67.2519C82.6651 67.2799 82.6782 67.315 82.678 67.3571V70.6693C82.678 70.7083 82.664 70.7423 82.6364 70.7717C82.6087 70.8008 82.5763 70.8155 82.5395 70.8155C82.4963 70.8155 82.4625 70.8008 82.4378 70.7717C82.4131 70.7425 82.4008 70.7083 82.4008 70.6693V70.0896L82.4794 70.0215C82.4794 70.1125 82.4563 70.2072 82.4099 70.3059C82.3637 70.4052 82.2983 70.4971 82.214 70.5816C82.1289 70.6662 82.0305 70.7343 81.9183 70.7861C81.8056 70.8381 81.683 70.8641 81.5504 70.8641C81.347 70.8641 81.1632 70.8073 80.9985 70.6936C80.8332 70.58 80.703 70.4258 80.6075 70.231C80.512 70.0362 80.4642 69.8136 80.4642 69.5636C80.4642 69.3168 80.512 69.0951 80.6075 68.8983C80.703 68.702 80.8324 68.5479 80.9958 68.4356C81.1592 68.3239 81.3425 68.268 81.5456 68.268C81.6749 68.268 81.7968 68.2923 81.9108 68.3412C82.0248 68.3898 82.126 68.4566 82.214 68.5408C82.3015 68.6254 82.371 68.7218 82.422 68.8301C82.4724 68.9393 82.4977 69.0521 82.4979 69.1692L82.4008 69.0959V67.3571C82.4008 67.3181 82.4131 67.2842 82.4378 67.2548C82.4625 67.2256 82.4963 67.2109 82.5395 67.2109ZM81.578 70.5913C81.7415 70.5913 81.8861 70.5466 82.0125 70.4569C82.1389 70.3679 82.2384 70.2463 82.3111 70.0916C82.3833 69.9378 82.4193 69.7616 82.4193 69.5636C82.4193 69.3688 82.3833 69.1941 82.3111 69.0397C82.2384 68.8858 82.1389 68.7639 82.0125 68.6743C81.8861 68.5852 81.7412 68.5408 81.578 68.5408C81.4179 68.5408 81.274 68.5852 81.1463 68.6743C81.0181 68.7639 80.9179 68.8858 80.8458 69.0397C80.773 69.1943 80.7366 69.3688 80.7368 69.5636C80.7368 69.7585 80.7733 69.9338 80.8458 70.0896C80.9179 70.2454 81.0181 70.3679 81.1463 70.4569C81.2738 70.5466 81.4179 70.5913 81.578 70.5913ZM84.453 70.8641C84.2158 70.8641 84.0062 70.8107 83.8243 70.7035C83.6424 70.5964 83.5007 70.447 83.399 70.2553C83.2973 70.0636 83.2466 69.8396 83.2466 69.5832C83.2466 69.3072 83.2983 69.0716 83.4019 68.8768C83.505 68.6819 83.6389 68.5315 83.8039 68.4257C83.9684 68.3206 84.1431 68.268 84.3282 68.268C84.4637 68.268 84.5958 68.2928 84.7237 68.3429C84.8512 68.3935 84.9644 68.4682 85.0629 68.5671C85.1614 68.6664 85.2416 68.7877 85.3033 68.9305C85.3651 69.0733 85.3973 69.239 85.4005 69.4273C85.4005 69.4664 85.3865 69.4995 85.3589 69.5266C85.3313 69.5546 85.2988 69.5685 85.2618 69.5685H83.4084L83.3528 69.3055H85.174L85.1139 69.364V69.2664C85.0986 69.1137 85.0508 68.984 84.9706 68.8768C84.8904 68.7696 84.7943 68.6885 84.6822 68.6333C84.5695 68.5782 84.4514 68.5505 84.3282 68.5505C84.2359 68.5505 84.1412 68.57 84.0443 68.609C83.9469 68.648 83.8592 68.7088 83.7808 68.7911C83.7019 68.8742 83.6378 68.9797 83.5887 69.1078C83.5393 69.2365 83.5146 69.3883 83.5146 69.5636C83.5146 69.7554 83.5517 69.929 83.6255 70.0848C83.6995 70.2406 83.8058 70.3642 83.9445 70.455C84.0832 70.546 84.2512 70.5913 84.4482 70.5913C84.5528 70.5913 84.6484 70.5751 84.7348 70.5426C84.8212 70.5101 84.8974 70.4668 84.9642 70.4131C85.0302 70.3599 85.0847 70.304 85.1279 70.2454C85.1617 70.2163 85.1941 70.2016 85.2247 70.2016C85.2585 70.2016 85.2872 70.2146 85.3109 70.2406C85.3337 70.2666 85.3449 70.2958 85.3449 70.3283C85.3449 70.3673 85.3297 70.4012 85.2988 70.4306C85.2065 70.5474 85.0863 70.6489 84.9382 70.7346C84.7903 70.8209 84.6285 70.8641 84.453 70.8641ZM87.9102 68.3265C87.9502 68.3265 87.9835 68.3412 88.0101 68.3703C88.0358 68.3995 88.049 68.4354 88.049 68.4775V70.6693C88.049 70.7083 88.035 70.7423 88.0074 70.7717C87.9797 70.8008 87.9473 70.8155 87.9102 70.8155C87.867 70.8155 87.8332 70.8008 87.8085 70.7717C87.7838 70.7425 87.7715 70.7083 87.7715 70.6693V70.0896L87.8501 70.0506C87.8501 70.1416 87.8265 70.2341 87.779 70.3283C87.731 70.4224 87.6652 70.5101 87.582 70.5913C87.4989 70.6724 87.4012 70.738 87.289 70.7881C87.1763 70.8387 87.0537 70.8641 86.9212 70.8641C86.7148 70.8641 86.5291 70.8073 86.3646 70.6936C86.1993 70.58 86.07 70.4241 85.9763 70.2262C85.8822 70.0283 85.8349 69.8057 85.8349 69.5588C85.8349 69.3055 85.8827 69.0821 85.9782 68.8887C86.0737 68.6958 86.2031 68.5442 86.3665 68.4337C86.5299 68.3234 86.7132 68.268 86.9166 68.268C87.0491 68.268 87.1734 68.2923 87.289 68.3412C87.4042 68.3898 87.505 68.4566 87.5912 68.5408C87.6776 68.6254 87.7452 68.7218 87.7946 68.8301C87.844 68.9393 87.8686 69.0521 87.8686 69.1692L87.7715 69.0959V68.4775C87.7715 68.4354 87.7838 68.3995 87.8085 68.3703C87.8332 68.3412 87.867 68.3265 87.9102 68.3265ZM86.9488 70.5913C87.1122 70.5913 87.2568 70.5466 87.3832 70.4569C87.5096 70.3679 87.6092 70.2446 87.6819 70.0868C87.7541 69.9296 87.79 69.7537 87.79 69.5588C87.79 69.3671 87.7541 69.1952 87.6819 69.0425C87.6092 68.8898 87.5096 68.7682 87.3832 68.6771C87.2568 68.5861 87.1119 68.5408 86.9488 68.5408C86.7886 68.5408 86.6448 68.5847 86.517 68.6723C86.3888 68.76 86.2887 68.8802 86.2168 69.0326C86.1441 69.1853 86.1076 69.3606 86.1076 69.5588C86.1076 69.7537 86.143 69.9296 86.2138 70.0868C86.2847 70.2446 86.3842 70.3679 86.5125 70.4569C86.6399 70.5466 86.7854 70.5913 86.9488 70.5913Z" fill="#F9CC0B"/>
<g clip-path="url(#clip3_18_1018)">
<g clip-path="url(#clip4_18_1018)">
<g clip-path="url(#clip5_18_1018)">
<g clip-path="url(#clip6_18_1018)">
<g clip-path="url(#clip7_18_1018)">
<g clip-path="url(#clip8_18_1018)">
<g clip-path="url(#clip9_18_1018)">
<path d="M20.0345 60.3789C17.6366 60.3789 15.4915 59.8965 13.5993 58.9316C11.6984 57.9668 10.2161 56.6665 9.15225 55.0308C8.07972 53.4044 7.54346 51.5803 7.54346 49.5588C7.54346 46.2507 8.8209 43.641 11.3758 41.7297C13.922 39.8275 17.3314 38.5089 21.6041 37.7737L29.1902 36.5332V36.0508C29.1902 34.6265 28.9723 33.556 28.5363 32.8392C28.1003 32.1317 27.2283 31.7779 25.9203 31.7779C25.0048 31.7779 24.2636 31.9617 23.6968 32.3292C23.13 32.6968 22.6068 33.2252 22.1272 33.9143C21.6913 34.4197 21.1245 34.6724 20.4269 34.6724H11.2058C10.7698 34.6724 10.4123 34.5346 10.1332 34.2589C9.84547 33.9832 9.7234 33.6157 9.76699 33.1562C9.81059 32.3292 10.1376 31.3506 10.748 30.2203C11.3583 29.0993 12.3088 27.9966 13.5993 26.9122C14.8811 25.8371 16.5466 24.9412 18.5957 24.2244C20.6449 23.5169 23.1082 23.1631 25.9857 23.1631C28.9069 23.1631 31.4138 23.5077 33.5065 24.1969C35.5993 24.8861 37.3214 25.8509 38.673 27.0914C40.0245 28.332 41.0273 29.8344 41.6813 31.5987C42.3353 33.3722 42.6623 35.3386 42.6623 37.4981V57.8978C42.6623 58.4032 42.5009 58.8259 42.1783 59.1659C41.847 59.5151 41.4415 59.6897 40.9619 59.6897H31.4792C30.9996 59.6897 30.5854 59.5151 30.2366 59.1659C29.8878 58.8259 29.7134 58.4032 29.7134 57.8978V55.6925C29.1466 56.6114 28.3924 57.4154 27.4507 58.1046C26.5176 58.7938 25.432 59.3451 24.1938 59.7586C22.9469 60.1721 21.5605 60.3789 20.0345 60.3789ZM23.8276 51.3506C24.9176 51.3506 25.8767 51.1071 26.7051 50.6201C27.5335 50.1423 28.1788 49.3979 28.6409 48.3871C29.0943 47.3763 29.321 46.1128 29.321 44.5966V44.1142L24.6124 45.0791C22.9992 45.4007 21.8657 45.8601 21.2117 46.4574C20.5577 47.0547 20.2307 47.7439 20.2307 48.525C20.2307 49.0763 20.3833 49.5588 20.6885 49.9723C20.9937 50.3858 21.4209 50.7166 21.9703 50.9647C22.5109 51.222 23.13 51.3506 23.8276 51.3506ZM67.7098 60.3789C64.0911 60.3789 61.0043 59.9194 58.4494 59.0005C55.9032 58.0816 53.8323 56.9192 52.2366 55.5133C50.6496 54.1165 49.4855 52.6141 48.7443 51.006C48.0031 49.3979 47.6107 47.9047 47.5671 46.5264C47.5671 46.1128 47.6979 45.7545 47.9595 45.4512C48.2211 45.1572 48.5481 45.0102 48.9405 45.0102H59.7966C60.3634 45.0102 60.7994 45.1112 61.1045 45.3134C61.4097 45.5247 61.6931 45.8372 61.9547 46.2507C62.2599 46.802 62.6741 47.2753 63.1973 47.6704C63.7205 48.0563 64.3527 48.3274 65.0938 48.4836C65.835 48.649 66.7288 48.7317 67.7752 48.7317C69.6499 48.7317 71.0669 48.2815 72.026 47.3809C72.9852 46.4896 73.4648 45.3088 73.4648 43.8385C73.4648 42.3683 72.9852 41.2978 72.026 40.627C71.0669 39.9653 69.6935 39.6345 67.906 39.6345H60.189C59.7094 39.6345 59.3039 39.4508 58.9726 39.0832C58.6499 38.7156 58.4886 38.3021 58.4886 37.8427V33.0873C58.4886 32.4441 58.6063 31.9019 58.8418 31.4608C59.0859 31.029 59.3606 30.7211 59.6658 30.5373L69.5409 23.1631H51.8834C51.4038 23.1631 50.9984 22.9793 50.667 22.6118C50.3444 22.2442 50.1831 21.8307 50.1831 21.3712V13.2389C50.1831 12.7335 50.3444 12.3062 50.667 11.957C50.9984 11.617 51.4038 11.447 51.8834 11.447H83.6669C84.1465 11.447 84.5476 11.617 84.8702 11.957C85.2016 12.3062 85.3673 12.7335 85.3673 13.2389V20.5442C85.3673 21.1415 85.2583 21.6469 85.0403 22.0604C84.8223 22.4739 84.5607 22.7955 84.2555 23.0253L75.4267 30.6063L75.6883 30.7441C77.9991 31.2036 80.0918 31.9708 81.9666 33.046C83.8413 34.1303 85.3237 35.6373 86.4136 37.567C87.5036 39.4967 88.0486 41.9318 88.0486 44.8723C88.0486 47.9966 87.1635 50.7166 85.3934 53.0322C83.632 55.3571 81.2341 57.1627 78.1996 58.4492C75.1739 59.7357 71.6772 60.3789 67.7098 60.3789Z" fill="#F9CC0B"/>
</g>
</g>
</g>
</g>
</g>
</g>
</g>
</g>
</g>
</g>
<defs>
<clipPath id="clip0_18_1018">
<rect width="95.592" height="71.8256" fill="white"/>
</clipPath>
<clipPath id="clip1_18_1018">
<rect width="95.4308" height="71.69" fill="white" transform="translate(0.0805664 0.0678711)"/>
</clipPath>
<clipPath id="clip2_18_1018">
<rect width="95.4308" height="71.69" fill="white" transform="translate(0.0805664 0.0678711)"/>
</clipPath>
<clipPath id="clip3_18_1018">
<rect width="80.5051" height="48.9319" fill="white" transform="translate(7.54346 11.447)"/>
</clipPath>
<clipPath id="clip4_18_1018">
<rect width="80.5051" height="48.9319" fill="white" transform="translate(7.54346 11.447)"/>
</clipPath>
<clipPath id="clip5_18_1018">
<rect width="80.5051" height="48.9319" fill="white" transform="translate(7.54346 11.447)"/>
</clipPath>
<clipPath id="clip6_18_1018">
<rect width="80.5051" height="48.9319" fill="white" transform="translate(7.54346 11.447)"/>
</clipPath>
<clipPath id="clip7_18_1018">
<rect width="80.5051" height="48.9319" fill="white" transform="translate(7.54346 11.447)"/>
</clipPath>
<clipPath id="clip8_18_1018">
<rect width="80.5051" height="48.9319" fill="white" transform="translate(7.54346 11.447)"/>
</clipPath>
<clipPath id="clip9_18_1018">
<rect width="80.5051" height="48.9319" fill="white" transform="translate(7.54346 11.447)"/>
</clipPath>
</defs>
</svg>
